<?xml version="1.0" standalone="no"?><!DOCTYPE svg PUBLIC "-//W3C//DTD SVG 1.1//EN" "http://www.w3.org/Graphics/SVG/1.1/DTD/svg11.dtd"><svg t="1726044160942" class="icon" viewBox="0 0 1024 1024" version="1.1" xmlns="http://www.w3.org/2000/svg" p-id="12384" xmlns:xlink="http://www.w3.org/1999/xlink" width="81" height="81"><path d="M330.3424 493.4144m40.448 0l287.5904 0q40.448 0 40.448 40.448l0 131.584q0 40.448-40.448 40.448l-287.5904 0q-40.448 0-40.448-40.448l0-131.584q0-40.448 40.448-40.448Z" fill="#6893DF" p-id="12385"></path><path d="M786.7392 109.6704H242.432A132.608 132.608 0 0 0 109.9776 242.176v544.3072a132.608 132.608 0 0 0 132.4544 132.5056h544.3072a132.6592 132.6592 0 0 0 132.5056-132.5056V242.176a132.6592 132.6592 0 0 0-132.5056-132.5056zM760.2688 665.6a101.9392 101.9392 0 0 1-101.8368 101.8368H370.7904A101.9904 101.9904 0 0 1 268.9024 665.6v-131.7376a101.9904 101.9904 0 0 1 91.4944-101.3248v-6.4512a154.2144 154.2144 0 0 1 308.3776 0v6.4512a101.9904 101.9904 0 0 1 91.4944 101.3248z" fill="#6893DF" p-id="12386"></path><path d="M607.3344 431.9744v-5.888a92.7744 92.7744 0 0 0-185.4976 0v5.888z" fill="#6893DF" p-id="12387"></path></svg>